<?xml version="1.0" standalone="no"?>
<!DOCTYPE svg PUBLIC "-//W3C//DTD SVG 20010904//EN"
 "http://www.w3.org/TR/2001/REC-SVG-20010904/DTD/svg10.dtd">
<svg version="1.0" xmlns="http://www.w3.org/2000/svg"
 width="128.000000pt" height="128.000000pt" viewBox="0 0 128.000000 128.000000"
 preserveAspectRatio="xMidYMid meet">
<metadata>
Created by potrace 1.11, written by Peter Selinger 2001-2013
</metadata>
<g transform="translate(0.000000,128.000000) scale(0.100000,-0.100000)"
fill="#000000" stroke="none">
<path d="M497 1133 c-89 -142 -497 -833 -497 -842 0 -21 37 -27 155 -25 66 1
128 0 137 -3 9 -2 36 -37 60 -78 24 -41 50 -75 58 -76 8 0 80 -2 159 -2 156
-2 158 -1 186 54 9 16 18 29 21 29 3 0 20 -11 38 -25 78 -59 203 -73 291 -31
61 29 120 86 148 146 31 66 30 178 -2 243 -28 57 -81 111 -136 139 -22 11 -42
22 -44 24 -3 2 -3 29 -2 60 1 31 -3 62 -9 69 -9 11 -45 14 -152 14 -124 0
-141 2 -153 18 -8 10 -56 87 -107 170 -62 102 -99 153 -110 153 -10 0 -28 -17
-41 -37z m127 -178 l75 -120 -47 -3 c-94 -5 -92 -3 -92 -87 0 -85 14 -75 -109
-78 l-54 -2 -74 -125 c-92 -157 -88 -146 -72 -178 7 -15 15 -30 17 -34 2 -5
-39 -8 -92 -8 -53 0 -96 2 -96 5 0 3 69 122 154 263 84 141 186 312 226 380
41 67 77 119 81 115 4 -4 41 -62 83 -128z m384 -224 l3 -41 -40 0 c-23 0 -42
0 -43 1 -12 2 -91 -39 -122 -63 -38 -30 -39 -31 -53 -12 -31 44 -45 55 -66 54
-71 -6 -74 -4 -74 50 1 35 6 50 16 52 8 2 96 3 195 2 l181 -1 3 -42z m88 -119
c57 -29 101 -83 119 -147 43 -148 -56 -288 -215 -302 -50 -5 -67 -2 -113 21
-90 44 -92 49 -45 130 45 77 47 65 -18 178 -25 44 -26 49 -11 71 9 14 40 37
69 52 45 22 62 26 113 22 33 -2 79 -14 101 -25z m-436 -2 c34 -1 37 -4 95
-106 33 -58 61 -109 63 -114 1 -4 -27 -57 -63 -119 l-66 -112 -131 3 -131 3
-42 70 c-22 39 -51 88 -64 111 l-23 41 63 111 c35 61 70 112 78 114 12 3 65 2
221 -2z"/>
</g>
</svg>
